<svg xmlns="http://www.w3.org/2000/svg" viewBox="0 0 1060 660" width="1060" height="660">
<rect x="0" y="0" width="1060" height="660" rx="0" fill="#fff" stroke="none" stroke-width="1"/>
<rect x="10" y="10" width="1040" height="640" rx="0" fill="none" stroke="#000" stroke-width="1"/>
<text x="530" y="36" font-family="'Times New Roman', Times, serif" font-size="15" fill="#000" text-anchor="middle">Sistem Penilaian Kinerja Operator — PT Bridgestone Tire Indonesia</text>
<line x1="10" y1="50" x2="1050" y2="50" stroke="#000" stroke-width="1"/>
<rect x="420" y="50" width="220" height="22" rx="0" fill="#fff" stroke="#000" stroke-width="1"/>
<text x="530" y="65" font-family="Arial, Helvetica, sans-serif" font-size="10" fill="#000" text-anchor="middle">Profil Pengguna</text>
<rect x="26" y="84" width="208" height="550" rx="0" fill="#f2f2f2" stroke="#000" stroke-width="1"/>
<rect x="38" y="96" width="26" height="26" rx="0" fill="#fff" stroke="#000" stroke-width="1"/>
<text x="51" y="114" font-family="Arial, Helvetica, sans-serif" font-size="14" fill="#000" text-anchor="middle" font-weight="bold">B</text>
<text x="72" y="108" font-family="Arial, Helvetica, sans-serif" font-size="10" fill="#000" text-anchor="start" font-weight="bold">PT Bridgestone</text>
<text x="72" y="120" font-family="Arial, Helvetica, sans-serif" font-size="8" fill="#555" text-anchor="start">Tire Curing Indonesia</text>
<rect x="38" y="132" width="184" height="46" rx="0" fill="#fff" stroke="#000" stroke-width="1"/>
<circle cx="58" cy="155" r="12" fill="none" stroke="#000" stroke-width="1"/>
<text x="78" y="148" font-family="Arial, Helvetica, sans-serif" font-size="10" fill="#000" text-anchor="start" font-weight="bold">Operator 1</text>
<text x="78" y="160" font-family="Arial, Helvetica, sans-serif" font-size="7" fill="#555" text-anchor="start">operator1@bridgestone.com</text>
<text x="78" y="172" font-family="Arial, Helvetica, sans-serif" font-size="7" fill="#555" text-anchor="start" letter-spacing="0.5">OPERATOR</text>
<text x="40" y="200" font-family="Arial, Helvetica, sans-serif" font-size="7" fill="#8a8a8a" text-anchor="start" letter-spacing="1">NAVIGASI UTAMA</text>
<rect x="42" y="217" width="8" height="8" rx="0" fill="none" stroke="#999" stroke-width="1"/>
<text x="58" y="225" font-family="Arial, Helvetica, sans-serif" font-size="9.5" fill="#555" text-anchor="start" font-weight="normal">Dashboard</text>
<rect x="42" y="241" width="8" height="8" rx="0" fill="none" stroke="#999" stroke-width="1"/>
<text x="58" y="249" font-family="Arial, Helvetica, sans-serif" font-size="9.5" fill="#555" text-anchor="start" font-weight="normal">Scan Area QR</text>
<rect x="42" y="265" width="8" height="8" rx="0" fill="none" stroke="#999" stroke-width="1"/>
<text x="58" y="273" font-family="Arial, Helvetica, sans-serif" font-size="9.5" fill="#555" text-anchor="start" font-weight="normal">Ajukan VoO / Ide Kaizen</text>
<rect x="42" y="289" width="8" height="8" rx="0" fill="none" stroke="#999" stroke-width="1"/>
<text x="58" y="297" font-family="Arial, Helvetica, sans-serif" font-size="9.5" fill="#555" text-anchor="start" font-weight="normal">Pengajuan Saya</text>
<rect x="42" y="313" width="8" height="8" rx="0" fill="none" stroke="#999" stroke-width="1"/>
<text x="58" y="321" font-family="Arial, Helvetica, sans-serif" font-size="9.5" fill="#555" text-anchor="start" font-weight="normal">Pelanggaran Saya</text>
<rect x="34" y="330" width="192" height="22" rx="0" fill="#fff" stroke="#000" stroke-width="1"/>
<rect x="42" y="337" width="8" height="8" rx="0" fill="none" stroke="#000" stroke-width="1"/>
<text x="58" y="345" font-family="Arial, Helvetica, sans-serif" font-size="9.5" fill="#000" text-anchor="start" font-weight="bold">Profil Saya</text>
<circle cx="46" cy="588" r="3" fill="#000" stroke="#000" stroke-width="1"/>
<text x="56" y="591" font-family="Arial, Helvetica, sans-serif" font-size="8" fill="#555" text-anchor="start">Blockchain Aktif</text>
<rect x="38" y="600" width="184" height="24" rx="0" fill="#fff" stroke="#000" stroke-width="1"/>
<text x="130" y="616" font-family="Arial, Helvetica, sans-serif" font-size="10" fill="#000" text-anchor="middle" font-weight="normal">Keluar</text>
<rect x="250" y="84" width="784" height="550" rx="0" fill="#fff" stroke="#000" stroke-width="1"/>
<rect x="264" y="96" width="400" height="26" rx="0" fill="#f2f2f2" stroke="#000" stroke-width="1"/>
<circle cx="280" cy="109" r="5" fill="none" stroke="#555" stroke-width="1"/>
<text x="294" y="113" font-family="Arial, Helvetica, sans-serif" font-size="10" fill="#8a8a8a" text-anchor="start">Cari operator, event, area…</text>
<circle cx="950" cy="109" r="9" fill="none" stroke="#555" stroke-width="1"/>
<text x="950" y="112" font-family="Arial, Helvetica, sans-serif" font-size="9" fill="#555" text-anchor="middle">⚑</text>
<circle cx="980" cy="109" r="9" fill="none" stroke="#555" stroke-width="1"/>
<text x="980" y="112" font-family="Arial, Helvetica, sans-serif" font-size="9" fill="#555" text-anchor="middle">☾</text>
<circle cx="1010" cy="109" r="11" fill="#f2f2f2" stroke="#000" stroke-width="1"/>
<line x1="250" y1="134" x2="1034" y2="134" stroke="#bbb" stroke-width="1"/>
<text x="264" y="164" font-family="Arial, Helvetica, sans-serif" font-size="19" fill="#000" text-anchor="start" font-weight="bold">Profil Saya</text>
<text x="264" y="184" font-family="Arial, Helvetica, sans-serif" font-size="10" fill="#555" text-anchor="start">Informasi akun dan peran Anda</text>
<rect x="264" y="194" width="470" height="420" rx="0" fill="#fff" stroke="#000" stroke-width="1"/>
<circle cx="310" cy="240" r="24" fill="none" stroke="#000" stroke-width="1"/>
<text x="350" y="238" font-family="Arial, Helvetica, sans-serif" font-size="16" fill="#000" text-anchor="start" font-weight="bold">Operator 1</text>
<rect x="350" y="250" width="58.8" height="15" rx="7" fill="#f2f2f2" stroke="#bbb" stroke-width="1"/>
<text x="379.4" y="261" font-family="Arial, Helvetica, sans-serif" font-size="8" fill="#555" text-anchor="middle">Operator</text>
<text x="284" y="292" font-family="Arial, Helvetica, sans-serif" font-size="9" fill="#555" text-anchor="start"></text>
<text x="708" y="292" font-family="Arial, Helvetica, sans-serif" font-size="9" fill="#555" text-anchor="end"></text>
<line x1="284" y1="300" x2="714" y2="300" stroke="#999" stroke-width="1"/>
<text x="284" y="318" font-family="Arial, Helvetica, sans-serif" font-size="10" fill="#000" text-anchor="start">Nama Pengguna</text>
<text x="708" y="318" font-family="Arial, Helvetica, sans-serif" font-size="10" fill="#000" text-anchor="end">operator01</text>
<line x1="284" y1="328" x2="714" y2="328" stroke="#d5d5d5" stroke-width="1"/>
<text x="284" y="346" font-family="Arial, Helvetica, sans-serif" font-size="10" fill="#000" text-anchor="start">Email</text>
<text x="708" y="346" font-family="Arial, Helvetica, sans-serif" font-size="10" fill="#000" text-anchor="end">operator1@bridgestone.com</text>
<line x1="284" y1="356" x2="714" y2="356" stroke="#d5d5d5" stroke-width="1"/>
<text x="284" y="374" font-family="Arial, Helvetica, sans-serif" font-size="10" fill="#000" text-anchor="start">NIK</text>
<text x="708" y="374" font-family="Arial, Helvetica, sans-serif" font-size="10" fill="#000" text-anchor="end">NIP-OP-001</text>
<line x1="284" y1="384" x2="714" y2="384" stroke="#d5d5d5" stroke-width="1"/>
<text x="284" y="402" font-family="Arial, Helvetica, sans-serif" font-size="10" fill="#000" text-anchor="start">Status Akun</text>
<text x="708" y="402" font-family="Arial, Helvetica, sans-serif" font-size="10" fill="#000" text-anchor="end">Aktif</text>
<line x1="284" y1="412" x2="714" y2="412" stroke="#d5d5d5" stroke-width="1"/>
<rect x="284" y="430" width="430" height="30" rx="0" fill="#d9d9d9" stroke="#000" stroke-width="1"/>
<text x="499" y="449" font-family="Arial, Helvetica, sans-serif" font-size="10" fill="#000" text-anchor="middle" font-weight="bold">Ubah Profil</text>
<rect x="284" y="470" width="430" height="30" rx="0" fill="#fff" stroke="#000" stroke-width="1"/>
<text x="499" y="489" font-family="Arial, Helvetica, sans-serif" font-size="10" fill="#000" text-anchor="middle" font-weight="normal">Keluar dari Akun</text>
<rect x="748" y="194" width="272" height="420" rx="0" fill="#fff" stroke="#000" stroke-width="1"/>
<text x="762" y="218" font-family="Arial, Helvetica, sans-serif" font-size="12" fill="#000" text-anchor="start" font-weight="bold">Data Operator</text>
<line x1="748" y1="230" x2="1020" y2="230" stroke="#bbb" stroke-width="1"/>
<text x="768" y="246" font-family="Arial, Helvetica, sans-serif" font-size="9" fill="#555" text-anchor="start"></text>
<text x="988" y="246" font-family="Arial, Helvetica, sans-serif" font-size="9" fill="#555" text-anchor="end"></text>
<line x1="768" y1="254" x2="1000" y2="254" stroke="#999" stroke-width="1"/>
<text x="768" y="271" font-family="Arial, Helvetica, sans-serif" font-size="10" fill="#000" text-anchor="start">ID Karyawan</text>
<text x="988" y="271" font-family="Arial, Helvetica, sans-serif" font-size="10" fill="#000" text-anchor="end">EMP1001</text>
<line x1="768" y1="280" x2="1000" y2="280" stroke="#d5d5d5" stroke-width="1"/>
<text x="768" y="297" font-family="Arial, Helvetica, sans-serif" font-size="10" fill="#000" text-anchor="start">Section</text>
<text x="988" y="297" font-family="Arial, Helvetica, sans-serif" font-size="10" fill="#000" text-anchor="end">Curing</text>
<line x1="768" y1="306" x2="1000" y2="306" stroke="#d5d5d5" stroke-width="1"/>
<text x="768" y="323" font-family="Arial, Helvetica, sans-serif" font-size="10" fill="#000" text-anchor="start">Group</text>
<text x="988" y="323" font-family="Arial, Helvetica, sans-serif" font-size="10" fill="#000" text-anchor="end">A</text>
<line x1="768" y1="332" x2="1000" y2="332" stroke="#d5d5d5" stroke-width="1"/>
<text x="768" y="349" font-family="Arial, Helvetica, sans-serif" font-size="10" fill="#000" text-anchor="start">Posisi</text>
<text x="988" y="349" font-family="Arial, Helvetica, sans-serif" font-size="10" fill="#000" text-anchor="end">Curing Operator</text>
<line x1="768" y1="358" x2="1000" y2="358" stroke="#d5d5d5" stroke-width="1"/>
<rect x="814" y="384" width="140" height="140" rx="0" fill="#fff" stroke="#000" stroke-width="1"/>
<text x="884" y="460" font-family="Arial, Helvetica, sans-serif" font-size="22" fill="#000" text-anchor="middle" font-weight="bold">QR</text>
<text x="884" y="544" font-family="Arial, Helvetica, sans-serif" font-size="8" fill="#555" text-anchor="middle">QR Identitas — tunjukkan ke Foreman</text>
</svg>
