<svg xmlns="http://www.w3.org/2000/svg" viewBox="0 0 1060 620" width="1060" height="620">
<rect x="0" y="0" width="1060" height="620" rx="0" fill="#fff" stroke="none" stroke-width="1"/>
<rect x="10" y="10" width="1040" height="600" rx="0" fill="none" stroke="#000" stroke-width="1"/>
<text x="530" y="36" font-family="'Times New Roman', Times, serif" font-size="15" fill="#000" text-anchor="middle">Sistem Penilaian Kinerja Operator — PT Bridgestone Tire Indonesia</text>
<line x1="10" y1="50" x2="1050" y2="50" stroke="#000" stroke-width="1"/>
<rect x="420" y="50" width="220" height="22" rx="0" fill="#fff" stroke="#000" stroke-width="1"/>
<text x="530" y="65" font-family="Arial, Helvetica, sans-serif" font-size="10" fill="#000" text-anchor="middle">Kelola Lokasi QR</text>
<rect x="26" y="84" width="208" height="510" rx="0" fill="#f2f2f2" stroke="#000" stroke-width="1"/>
<rect x="38" y="96" width="26" height="26" rx="0" fill="#fff" stroke="#000" stroke-width="1"/>
<text x="51" y="114" font-family="Arial, Helvetica, sans-serif" font-size="14" fill="#000" text-anchor="middle" font-weight="bold">B</text>
<text x="72" y="108" font-family="Arial, Helvetica, sans-serif" font-size="10" fill="#000" text-anchor="start" font-weight="bold">PT Bridgestone</text>
<text x="72" y="120" font-family="Arial, Helvetica, sans-serif" font-size="8" fill="#555" text-anchor="start">Tire Curing Indonesia</text>
<rect x="38" y="132" width="184" height="46" rx="0" fill="#fff" stroke="#000" stroke-width="1"/>
<circle cx="58" cy="155" r="12" fill="none" stroke="#000" stroke-width="1"/>
<text x="78" y="148" font-family="Arial, Helvetica, sans-serif" font-size="10" fill="#000" text-anchor="start" font-weight="bold">Super Administrator</text>
<text x="78" y="160" font-family="Arial, Helvetica, sans-serif" font-size="7" fill="#555" text-anchor="start">superadmin@bridgestone.com</text>
<text x="78" y="172" font-family="Arial, Helvetica, sans-serif" font-size="7" fill="#555" text-anchor="start" letter-spacing="0.5">SUPER ADMIN</text>
<text x="40" y="200" font-family="Arial, Helvetica, sans-serif" font-size="7" fill="#8a8a8a" text-anchor="start" letter-spacing="1">NAVIGASI UTAMA</text>
<rect x="42" y="217" width="8" height="8" rx="0" fill="none" stroke="#999" stroke-width="1"/>
<text x="58" y="225" font-family="Arial, Helvetica, sans-serif" font-size="9.5" fill="#555" text-anchor="start" font-weight="normal">Dashboard KPI</text>
<rect x="42" y="241" width="8" height="8" rx="0" fill="none" stroke="#999" stroke-width="1"/>
<text x="58" y="249" font-family="Arial, Helvetica, sans-serif" font-size="9.5" fill="#555" text-anchor="start" font-weight="normal">Monitor Operator</text>
<rect x="42" y="265" width="8" height="8" rx="0" fill="none" stroke="#999" stroke-width="1"/>
<text x="58" y="273" font-family="Arial, Helvetica, sans-serif" font-size="9.5" fill="#555" text-anchor="start" font-weight="normal">Persetujuan Final</text>
<rect x="42" y="289" width="8" height="8" rx="0" fill="none" stroke="#999" stroke-width="1"/>
<text x="58" y="297" font-family="Arial, Helvetica, sans-serif" font-size="9.5" fill="#555" text-anchor="start" font-weight="normal">Ranking Operator</text>
<rect x="42" y="313" width="8" height="8" rx="0" fill="none" stroke="#999" stroke-width="1"/>
<text x="58" y="321" font-family="Arial, Helvetica, sans-serif" font-size="9.5" fill="#555" text-anchor="start" font-weight="normal">Export Laporan</text>
<rect x="42" y="337" width="8" height="8" rx="0" fill="none" stroke="#999" stroke-width="1"/>
<text x="58" y="345" font-family="Arial, Helvetica, sans-serif" font-size="9.5" fill="#555" text-anchor="start" font-weight="normal">Blockchain</text>
<rect x="42" y="361" width="8" height="8" rx="0" fill="none" stroke="#999" stroke-width="1"/>
<text x="58" y="369" font-family="Arial, Helvetica, sans-serif" font-size="9.5" fill="#555" text-anchor="start" font-weight="normal">Log Audit</text>
<rect x="42" y="385" width="8" height="8" rx="0" fill="none" stroke="#999" stroke-width="1"/>
<text x="58" y="393" font-family="Arial, Helvetica, sans-serif" font-size="9.5" fill="#555" text-anchor="start" font-weight="normal">Katalog Pelanggaran</text>
<rect x="42" y="409" width="8" height="8" rx="0" fill="none" stroke="#999" stroke-width="1"/>
<text x="58" y="417" font-family="Arial, Helvetica, sans-serif" font-size="9.5" fill="#555" text-anchor="start" font-weight="normal">Kelola User</text>
<rect x="42" y="433" width="8" height="8" rx="0" fill="none" stroke="#999" stroke-width="1"/>
<text x="58" y="441" font-family="Arial, Helvetica, sans-serif" font-size="9.5" fill="#555" text-anchor="start" font-weight="normal">Kelola Role</text>
<rect x="34" y="450" width="192" height="22" rx="0" fill="#fff" stroke="#000" stroke-width="1"/>
<rect x="42" y="457" width="8" height="8" rx="0" fill="none" stroke="#000" stroke-width="1"/>
<text x="58" y="465" font-family="Arial, Helvetica, sans-serif" font-size="9.5" fill="#000" text-anchor="start" font-weight="bold">Lokasi QR</text>
<rect x="42" y="481" width="8" height="8" rx="0" fill="none" stroke="#999" stroke-width="1"/>
<text x="58" y="489" font-family="Arial, Helvetica, sans-serif" font-size="9.5" fill="#555" text-anchor="start" font-weight="normal">Profil Saya</text>
<circle cx="46" cy="548" r="3" fill="#000" stroke="#000" stroke-width="1"/>
<text x="56" y="551" font-family="Arial, Helvetica, sans-serif" font-size="8" fill="#555" text-anchor="start">Blockchain Aktif</text>
<rect x="38" y="560" width="184" height="24" rx="0" fill="#fff" stroke="#000" stroke-width="1"/>
<text x="130" y="576" font-family="Arial, Helvetica, sans-serif" font-size="10" fill="#000" text-anchor="middle" font-weight="normal">Keluar</text>
<rect x="250" y="84" width="784" height="510" rx="0" fill="#fff" stroke="#000" stroke-width="1"/>
<rect x="264" y="96" width="400" height="26" rx="0" fill="#f2f2f2" stroke="#000" stroke-width="1"/>
<circle cx="280" cy="109" r="5" fill="none" stroke="#555" stroke-width="1"/>
<text x="294" y="113" font-family="Arial, Helvetica, sans-serif" font-size="10" fill="#8a8a8a" text-anchor="start">Cari operator, event, area…</text>
<circle cx="950" cy="109" r="9" fill="none" stroke="#555" stroke-width="1"/>
<text x="950" y="112" font-family="Arial, Helvetica, sans-serif" font-size="9" fill="#555" text-anchor="middle">⚑</text>
<circle cx="980" cy="109" r="9" fill="none" stroke="#555" stroke-width="1"/>
<text x="980" y="112" font-family="Arial, Helvetica, sans-serif" font-size="9" fill="#555" text-anchor="middle">☾</text>
<circle cx="1010" cy="109" r="11" fill="#f2f2f2" stroke="#000" stroke-width="1"/>
<line x1="250" y1="134" x2="1034" y2="134" stroke="#bbb" stroke-width="1"/>
<text x="264" y="164" font-family="Arial, Helvetica, sans-serif" font-size="19" fill="#000" text-anchor="start" font-weight="bold">Lokasi QR</text>
<text x="264" y="184" font-family="Arial, Helvetica, sans-serif" font-size="10" fill="#555" text-anchor="start">Kelola area kerja &amp; QR code pemindaian</text>
<rect x="901" y="147" width="119" height="24" rx="0" fill="#d9d9d9" stroke="#000" stroke-width="1"/>
<text x="960.5" y="163" font-family="Arial, Helvetica, sans-serif" font-size="10" fill="#000" text-anchor="middle" font-weight="bold">+ Tambah Lokasi</text>
<rect x="264" y="194" width="300" height="310" rx="0" fill="#fff" stroke="#000" stroke-width="1"/>
<text x="284" y="224" font-family="Arial, Helvetica, sans-serif" font-size="12" fill="#000" text-anchor="start" font-weight="bold">Area Curing</text>
<text x="284" y="240" font-family="Arial, Helvetica, sans-serif" font-size="9" fill="#555" text-anchor="start">QR-CUR · Curing</text>
<rect x="524" y="214" width="18" height="20" rx="0" fill="none" stroke="#555" stroke-width="1"/>
<rect x="284" y="256" width="140" height="140" rx="0" fill="#fff" stroke="#000" stroke-width="1"/>
<text x="354" y="334" font-family="Arial, Helvetica, sans-serif" font-size="22" fill="#000" text-anchor="middle" font-weight="bold">QR</text>
<text x="284" y="424" font-family="Arial, Helvetica, sans-serif" font-size="9" fill="#555" text-anchor="start">Area kerja Curing</text>
<line x1="284" y1="440" x2="544" y2="440" stroke="#bbb" stroke-width="1"/>
<text x="284" y="462" font-family="Arial, Helvetica, sans-serif" font-size="9" fill="#8a8a8a" text-anchor="start">0 kali dipindai</text>
<rect x="580" y="194" width="300" height="310" rx="0" fill="#fff" stroke="#000" stroke-width="1"/>
<text x="600" y="224" font-family="Arial, Helvetica, sans-serif" font-size="12" fill="#000" text-anchor="start" font-weight="bold">Area Banbury</text>
<text x="600" y="240" font-family="Arial, Helvetica, sans-serif" font-size="9" fill="#555" text-anchor="start">QR-BAN · Banbury</text>
<rect x="840" y="214" width="18" height="20" rx="0" fill="none" stroke="#555" stroke-width="1"/>
<rect x="600" y="256" width="140" height="140" rx="0" fill="#fff" stroke="#000" stroke-width="1"/>
<text x="670" y="334" font-family="Arial, Helvetica, sans-serif" font-size="22" fill="#000" text-anchor="middle" font-weight="bold">QR</text>
<text x="600" y="424" font-family="Arial, Helvetica, sans-serif" font-size="9" fill="#555" text-anchor="start">Area kerja Banbury</text>
<line x1="600" y1="440" x2="860" y2="440" stroke="#bbb" stroke-width="1"/>
<text x="600" y="462" font-family="Arial, Helvetica, sans-serif" font-size="9" fill="#8a8a8a" text-anchor="start">12 kali dipindai</text>
<rect x="896" y="194" width="300" height="310" rx="0" fill="#fff" stroke="#000" stroke-width="1"/>
<text x="916" y="224" font-family="Arial, Helvetica, sans-serif" font-size="12" fill="#000" text-anchor="start" font-weight="bold">Area Assembly</text>
<text x="916" y="240" font-family="Arial, Helvetica, sans-serif" font-size="9" fill="#555" text-anchor="start">QR-ASM · Assembly</text>
<rect x="1156" y="214" width="18" height="20" rx="0" fill="none" stroke="#555" stroke-width="1"/>
<rect x="916" y="256" width="140" height="140" rx="0" fill="#fff" stroke="#000" stroke-width="1"/>
<text x="986" y="334" font-family="Arial, Helvetica, sans-serif" font-size="22" fill="#000" text-anchor="middle" font-weight="bold">QR</text>
<text x="916" y="424" font-family="Arial, Helvetica, sans-serif" font-size="9" fill="#555" text-anchor="start">Area kerja Assembly</text>
<line x1="916" y1="440" x2="1176" y2="440" stroke="#bbb" stroke-width="1"/>
<text x="916" y="462" font-family="Arial, Helvetica, sans-serif" font-size="9" fill="#8a8a8a" text-anchor="start">5 kali dipindai</text>
</svg>
